
 
http://www.imdb.com/title/tt1583421/


Plot: The G.I. Joes are not only fighting their mortal enemy Cobra; they are forced to contend with threats from within the government that jeopardize their very existence. 



Director:
 Jon M. Chu 

Writers:
 Rhett Reese, Paul Wernick 

Stars:
 Dwayne Johnson, D.J. Cotrona, Channing Tatum

Genres:
  Action |  Adventure |  Sci-Fi |  Thriller 

Country:
 USA 

Language:
 English 





Format                                   : AVI
Format/Info                              : Audio Video Interleave
File size                                : 699 MiB
Duration                                 : 1h 40mn
Overall bit rate                         : 969 Kbps
Writing application                      : Lavf54.59.103

Video
ID                                       : 0
Format                                   : MPEG-4 Visual
Format profile                           : Simple@L3
Format settings, BVOP                    : No
Format settings, QPel                    : No
Format settings, GMC                     : No warppoints
Format settings, Matrix                  : Default (H.263)
Codec ID                                 : XVID
Codec ID/Hint                            : XviD
Duration                                 : 1h 40mn
Bit rate                                 : 895 Kbps
Width                                    : 640 pixels
Height                                   : 272 pixels
Display aspect ratio                     : 2.35:1
Frame rate                               : 23.976 fps
Color space                              : YUV
Chroma subsampling                       : 4:2:0
Bit depth                                : 8 bits
Scan type                                : Progressive
Compression mode                         : Lossy
Bits/(Pixel*Frame)                       : 0.214
Stream size                              : 645 MiB (92%)
Writing library                          : XviD 64

Audio
ID                                       : 1
Format                                   : AC-3
Format/Info                              : Audio Coding 3
Mode extension                           : CM (complete main)
Format settings, Endianness              : Big
Codec ID                                 : 2000
Duration                                 : 1h 40mn
Bit rate mode                            : Constant
Bit rate                                 : 64.0 Kbps
Channel(s)                               : 2 channels
Channel positions                        : Front: L R
Sampling rate                            : 48.0 KHz
Bit depth                                : 16 bits
Compression mode                         : Lossy
Stream size                              : 46.1 MiB (7%)
Alignment                                : Aligned on interleaves
Interleave, duration                     : 32 ms (0.77 video frame)




    	http://www.shotpix.com/images/11925944974643073693.png
    	http://www.shotpix.com/images/03057005595964603349.png
    	http://www.shotpix.com/images/90812716298040722522.png
    	http://www.shotpix.com/images/62796962744979921867.png
    	http://www.shotpix.com/images/08219064698595439590.png
    	http://www.shotpix.com/images/33250109340264634637.png
    	http://www.shotpix.com/images/64109799514777564805.png
    	http://www.shotpix.com/images/06906169807991091412.png
    	http://www.shotpix.com/images/18155496854736096287.png
    	http://www.shotpix.com/images/24196421526689308181.png

